<mxfile host="app.diagrams.net" agent="Mozilla/5.0 (X11; Linux x86_64) AppleWebKit/537.36 (KHTML, like Gecko) Chrome/129.0.0.0 Safari/537.36" version="24.7.16">
  <diagram name="Página-1" id="W2bv3p9kIcDRCyokPLu5">
    <mxGraphModel grid="1" page="1" gridSize="10" guides="1" tooltips="1" connect="1" arrows="1" fold="1" pageScale="1" pageWidth="827" pageHeight="1169" math="0" shadow="0">
      <root>
        <mxCell id="0" />
        <mxCell id="1" parent="0" />
        <mxCell id="xa8eYgp0jNfek7VKnrT4-5" style="edgeStyle=orthogonalEdgeStyle;rounded=0;orthogonalLoop=1;jettySize=auto;html=1;entryX=0;entryY=0.5;entryDx=0;entryDy=0;" edge="1" parent="1" source="xa8eYgp0jNfek7VKnrT4-1" target="xa8eYgp0jNfek7VKnrT4-4">
          <mxGeometry relative="1" as="geometry" />
        </mxCell>
        <mxCell id="xa8eYgp0jNfek7VKnrT4-1" value="" style="shape=image;verticalLabelPosition=bottom;labelBackgroundColor=default;verticalAlign=top;aspect=fixed;imageAspect=0;image=https://cdn-icons-png.flaticon.com/512/174/174857.png;" vertex="1" parent="1">
          <mxGeometry x="170" y="235" width="80" height="80" as="geometry" />
        </mxCell>
        <mxCell id="xa8eYgp0jNfek7VKnrT4-6" style="edgeStyle=orthogonalEdgeStyle;rounded=0;orthogonalLoop=1;jettySize=auto;html=1;entryX=0;entryY=0.5;entryDx=0;entryDy=0;" edge="1" parent="1" source="xa8eYgp0jNfek7VKnrT4-2" target="xa8eYgp0jNfek7VKnrT4-4">
          <mxGeometry relative="1" as="geometry">
            <mxPoint x="330" y="395" as="targetPoint" />
          </mxGeometry>
        </mxCell>
        <mxCell id="xa8eYgp0jNfek7VKnrT4-2" value="" style="shape=image;verticalLabelPosition=bottom;labelBackgroundColor=default;verticalAlign=top;aspect=fixed;imageAspect=0;image=https://upload.wikimedia.org/wikipedia/commons/thumb/a/a5/Instagram_icon.png/1200px-Instagram_icon.png;" vertex="1" parent="1">
          <mxGeometry x="170" y="355" width="80" height="80" as="geometry" />
        </mxCell>
        <mxCell id="xa8eYgp0jNfek7VKnrT4-7" style="edgeStyle=orthogonalEdgeStyle;rounded=0;orthogonalLoop=1;jettySize=auto;html=1;entryX=0;entryY=0.5;entryDx=0;entryDy=0;" edge="1" parent="1" source="xa8eYgp0jNfek7VKnrT4-3" target="xa8eYgp0jNfek7VKnrT4-4">
          <mxGeometry relative="1" as="geometry" />
        </mxCell>
        <mxCell id="xa8eYgp0jNfek7VKnrT4-3" value="" style="shape=image;verticalLabelPosition=bottom;labelBackgroundColor=default;verticalAlign=top;aspect=fixed;imageAspect=0;image=https://brand.cake.com/wp-content/uploads/2024/02/logo-light-bg-2.png;" vertex="1" parent="1">
          <mxGeometry x="170" y="475" width="80" height="80" as="geometry" />
        </mxCell>
        <mxCell id="xa8eYgp0jNfek7VKnrT4-4" value="&lt;div style=&quot;&quot;&gt;&lt;br&gt;&lt;/div&gt;" style="whiteSpace=wrap;html=1;aspect=fixed;align=left;" vertex="1" parent="1">
          <mxGeometry x="348.75" y="315" width="160" height="160" as="geometry" />
        </mxCell>
        <mxCell id="xa8eYgp0jNfek7VKnrT4-8" value="STAGE" style="text;html=1;align=center;verticalAlign=middle;resizable=0;points=[];autosize=1;strokeColor=none;fillColor=none;" vertex="1" parent="1">
          <mxGeometry x="398.75" y="285" width="60" height="30" as="geometry" />
        </mxCell>
        <mxCell id="xa8eYgp0jNfek7VKnrT4-9" value="" style="shape=image;verticalLabelPosition=bottom;labelBackgroundColor=default;verticalAlign=top;aspect=fixed;imageAspect=0;image=https://cdn-icons-png.flaticon.com/512/9159/9159105.png;" vertex="1" parent="1">
          <mxGeometry x="368.75" y="335" width="40" height="40" as="geometry" />
        </mxCell>
        <mxCell id="xa8eYgp0jNfek7VKnrT4-10" value="" style="shape=image;verticalLabelPosition=bottom;labelBackgroundColor=default;verticalAlign=top;aspect=fixed;imageAspect=0;image=https://cdn-icons-png.flaticon.com/512/8361/8361467.png;" vertex="1" parent="1">
          <mxGeometry x="438.75" y="335" width="40" height="40" as="geometry" />
        </mxCell>
        <mxCell id="xa8eYgp0jNfek7VKnrT4-11" value="" style="shape=image;verticalLabelPosition=bottom;labelBackgroundColor=default;verticalAlign=top;aspect=fixed;imageAspect=0;image=https://cdn-icons-png.flaticon.com/512/337/337946.png;" vertex="1" parent="1">
          <mxGeometry x="368.75" y="405" width="40" height="40" as="geometry" />
        </mxCell>
        <mxCell id="xa8eYgp0jNfek7VKnrT4-12" value="" style="shape=image;verticalLabelPosition=bottom;labelBackgroundColor=default;verticalAlign=top;aspect=fixed;imageAspect=0;image=https://cdn-icons-png.flaticon.com/512/136/136525.png;" vertex="1" parent="1">
          <mxGeometry x="438.75" y="405" width="40" height="40" as="geometry" />
        </mxCell>
        <mxCell id="xa8eYgp0jNfek7VKnrT4-15" value="" style="group" connectable="0" vertex="1" parent="1">
          <mxGeometry x="290" y="485" width="260" height="120" as="geometry" />
        </mxCell>
        <mxCell id="xa8eYgp0jNfek7VKnrT4-13" value="" style="shape=curlyBracket;whiteSpace=wrap;html=1;rounded=1;labelPosition=left;verticalLabelPosition=middle;align=right;verticalAlign=middle;size=0.5;rotation=90;" vertex="1" parent="xa8eYgp0jNfek7VKnrT4-15">
          <mxGeometry x="128.75" y="-103.75" width="20" height="227.5" as="geometry" />
        </mxCell>
        <mxCell id="xa8eYgp0jNfek7VKnrT4-14" value="&lt;div style=&quot;text-align: center;&quot;&gt;&lt;span style=&quot;font-size: 8px; background-color: initial;&quot;&gt;Requisitos:&lt;/span&gt;&lt;/div&gt;&lt;div style=&quot;font-size: 8px;&quot;&gt;&lt;ul&gt;&lt;li style=&quot;&quot;&gt;&lt;font style=&quot;font-size: 8px;&quot;&gt;Formato original (As Is)&lt;/font&gt;&lt;/li&gt;&lt;li&gt;&lt;font style=&quot;font-size: 8px;&quot;&gt;Download manual (por enquanto)&lt;/font&gt;&lt;/li&gt;&lt;li&gt;&lt;font style=&quot;font-size: 8px;&quot;&gt;Armazenado local em: ~/dev/&amp;lt;fonte&amp;gt;/{arquivo}.csv&lt;/font&gt;&lt;/li&gt;&lt;li&gt;&lt;font style=&quot;font-size: 8px;&quot;&gt;Extração padrão de 15 em 15 dias&lt;br&gt;&lt;/font&gt;&lt;/li&gt;&lt;ul&gt;&lt;li&gt;&lt;font style=&quot;font-size: 8px;&quot;&gt;dia 16, extrair dados do dia 01 ao 15&lt;/font&gt;&lt;/li&gt;&lt;li&gt;&lt;font style=&quot;font-size: 8px;&quot;&gt;dia 01, extrair dados do dia 16 ao 30 ou 31&lt;/font&gt;&lt;/li&gt;&lt;/ul&gt;&lt;/ul&gt;&lt;/div&gt;&lt;div style=&quot;font-size: 8px;&quot;&gt;&lt;br&gt;&lt;/div&gt;" style="text;html=1;align=left;verticalAlign=middle;resizable=0;points=[];autosize=1;strokeColor=none;fillColor=none;" vertex="1" parent="xa8eYgp0jNfek7VKnrT4-15">
          <mxGeometry y="10" width="260" height="110" as="geometry" />
        </mxCell>
        <mxCell id="xa8eYgp0jNfek7VKnrT4-18" value="" style="rounded=1;whiteSpace=wrap;html=1;fillColor=#dae8fc;strokeColor=#6c8ebf;" vertex="1" parent="1">
          <mxGeometry x="570" y="250" width="520" height="400" as="geometry" />
        </mxCell>
        <mxCell id="xa8eYgp0jNfek7VKnrT4-21" value="" style="group" connectable="0" vertex="1" parent="1">
          <mxGeometry x="720" y="200" width="220" height="40" as="geometry" />
        </mxCell>
        <mxCell id="xa8eYgp0jNfek7VKnrT4-19" value="" style="strokeWidth=2;html=1;shape=mxgraph.flowchart.database;whiteSpace=wrap;" vertex="1" parent="xa8eYgp0jNfek7VKnrT4-21">
          <mxGeometry width="40" height="40" as="geometry" />
        </mxCell>
        <mxCell id="xa8eYgp0jNfek7VKnrT4-20" value="Banco de dados MySQL&lt;div&gt;Instância criada numa VPS&lt;/div&gt;" style="text;html=1;align=left;verticalAlign=middle;resizable=0;points=[];autosize=1;strokeColor=none;fillColor=none;" vertex="1" parent="xa8eYgp0jNfek7VKnrT4-21">
          <mxGeometry x="50" width="170" height="40" as="geometry" />
        </mxCell>
        <mxCell id="xa8eYgp0jNfek7VKnrT4-28" style="edgeStyle=orthogonalEdgeStyle;rounded=0;orthogonalLoop=1;jettySize=auto;html=1;exitX=1;exitY=0.5;exitDx=0;exitDy=0;" edge="1" parent="1" source="xa8eYgp0jNfek7VKnrT4-22" target="xa8eYgp0jNfek7VKnrT4-23">
          <mxGeometry relative="1" as="geometry" />
        </mxCell>
        <mxCell id="xa8eYgp0jNfek7VKnrT4-22" value="" style="rounded=1;whiteSpace=wrap;html=1;" vertex="1" parent="1">
          <mxGeometry x="600" y="280" width="190" height="230" as="geometry" />
        </mxCell>
        <mxCell id="xa8eYgp0jNfek7VKnrT4-23" value="" style="rounded=1;whiteSpace=wrap;html=1;" vertex="1" parent="1">
          <mxGeometry x="870" y="280" width="190" height="230" as="geometry" />
        </mxCell>
        <mxCell id="xa8eYgp0jNfek7VKnrT4-24" value="RAW" style="text;html=1;align=center;verticalAlign=middle;resizable=0;points=[];autosize=1;strokeColor=none;fillColor=none;" vertex="1" parent="1">
          <mxGeometry x="670" y="250" width="50" height="30" as="geometry" />
        </mxCell>
        <mxCell id="xa8eYgp0jNfek7VKnrT4-25" value="CLEAN" style="text;html=1;align=center;verticalAlign=middle;resizable=0;points=[];autosize=1;strokeColor=none;fillColor=none;" vertex="1" parent="1">
          <mxGeometry x="935" y="250" width="60" height="30" as="geometry" />
        </mxCell>
        <mxCell id="xa8eYgp0jNfek7VKnrT4-26" style="edgeStyle=orthogonalEdgeStyle;rounded=0;orthogonalLoop=1;jettySize=auto;html=1;entryX=0;entryY=0.5;entryDx=0;entryDy=0;" edge="1" parent="1" source="xa8eYgp0jNfek7VKnrT4-4" target="xa8eYgp0jNfek7VKnrT4-22">
          <mxGeometry relative="1" as="geometry" />
        </mxCell>
        <mxCell id="xa8eYgp0jNfek7VKnrT4-30" value="" style="shape=curlyBracket;whiteSpace=wrap;html=1;rounded=1;labelPosition=left;verticalLabelPosition=middle;align=right;verticalAlign=middle;size=0.5;rotation=90;" vertex="1" parent="1">
          <mxGeometry x="688.75" y="411.25" width="20" height="227.5" as="geometry" />
        </mxCell>
        <mxCell id="xa8eYgp0jNfek7VKnrT4-31" value="&lt;div style=&quot;text-align: center;&quot;&gt;&lt;span style=&quot;font-size: 8px; background-color: initial;&quot;&gt;Requisitos:&lt;/span&gt;&lt;/div&gt;&lt;div style=&quot;font-size: 8px;&quot;&gt;&lt;ul&gt;&lt;li style=&quot;&quot;&gt;Somente estruturação em formato de tabela&lt;/li&gt;&lt;li style=&quot;&quot;&gt;Todos os tipos de dados ainda são TEXT&lt;/li&gt;&lt;li style=&quot;&quot;&gt;Sempre INSERT&lt;/li&gt;&lt;li style=&quot;&quot;&gt;Metadados técnicos e operacionais:&lt;/li&gt;&lt;ul&gt;&lt;li&gt;hash id&lt;/li&gt;&lt;li style=&quot;&quot;&gt;nome do arquivo de origem&lt;/li&gt;&lt;li style=&quot;&quot;&gt;timestamp da ingestão&lt;/li&gt;&lt;li style=&quot;&quot;&gt;data de competência&lt;/li&gt;&lt;li style=&quot;&quot;&gt;fonte&lt;/li&gt;&lt;li style=&quot;&quot;&gt;responsável&lt;/li&gt;&lt;/ul&gt;&lt;/ul&gt;&lt;/div&gt;" style="text;html=1;align=left;verticalAlign=middle;resizable=0;points=[];autosize=1;strokeColor=none;fillColor=none;" vertex="1" parent="1">
          <mxGeometry x="588.75" y="515" width="220" height="140" as="geometry" />
        </mxCell>
        <mxCell id="xa8eYgp0jNfek7VKnrT4-32" value="" style="shape=curlyBracket;whiteSpace=wrap;html=1;rounded=1;labelPosition=left;verticalLabelPosition=middle;align=right;verticalAlign=middle;size=0.5;rotation=90;" vertex="1" parent="1">
          <mxGeometry x="950" y="411.25" width="20" height="227.5" as="geometry" />
        </mxCell>
        <mxCell id="xa8eYgp0jNfek7VKnrT4-33" value="&lt;div style=&quot;text-align: center;&quot;&gt;&lt;span style=&quot;font-size: 8px; background-color: initial;&quot;&gt;Requisitos:&lt;/span&gt;&lt;/div&gt;&lt;div style=&quot;font-size: 8px;&quot;&gt;&lt;ul&gt;&lt;li style=&quot;&quot;&gt;&lt;span style=&quot;background-color: initial;&quot;&gt;Padronização de nomenclaturas&lt;/span&gt;&lt;/li&gt;&lt;li style=&quot;&quot;&gt;Correção de dados errados&lt;/li&gt;&lt;li style=&quot;&quot;&gt;Tipagem correta&lt;/li&gt;&lt;li&gt;Deduplicação baseada no hash id&lt;/li&gt;&lt;li style=&quot;&quot;&gt;Metadados técnicos e operacionais:&lt;/li&gt;&lt;ul&gt;&lt;li style=&quot;&quot;&gt;&lt;span style=&quot;background-color: initial;&quot;&gt;gera uma nova timestamp do processo&lt;/span&gt;&lt;/li&gt;&lt;/ul&gt;&lt;/ul&gt;&lt;/div&gt;" style="text;html=1;align=left;verticalAlign=middle;resizable=0;points=[];autosize=1;strokeColor=none;fillColor=none;" vertex="1" parent="1">
          <mxGeometry x="850" y="535" width="240" height="100" as="geometry" />
        </mxCell>
        <mxCell id="xa8eYgp0jNfek7VKnrT4-34" value="&lt;font style=&quot;font-size: 8px;&quot;&gt;linkedin_seguidores_localidade&lt;/font&gt;" style="swimlane;fontStyle=0;childLayout=stackLayout;horizontal=1;startSize=30;horizontalStack=0;resizeParent=1;resizeParentMax=0;resizeLast=0;collapsible=1;marginBottom=0;whiteSpace=wrap;html=1;" vertex="1" parent="1">
          <mxGeometry x="625" y="335" width="140" height="120" as="geometry" />
        </mxCell>
        <mxCell id="xa8eYgp0jNfek7VKnrT4-35" value="Item 1" style="text;strokeColor=none;fillColor=none;align=left;verticalAlign=middle;spacingLeft=4;spacingRight=4;overflow=hidden;points=[[0,0.5],[1,0.5]];portConstraint=eastwest;rotatable=0;whiteSpace=wrap;html=1;" vertex="1" parent="xa8eYgp0jNfek7VKnrT4-34">
          <mxGeometry y="30" width="140" height="30" as="geometry" />
        </mxCell>
        <mxCell id="xa8eYgp0jNfek7VKnrT4-36" value="Item 2" style="text;strokeColor=none;fillColor=none;align=left;verticalAlign=middle;spacingLeft=4;spacingRight=4;overflow=hidden;points=[[0,0.5],[1,0.5]];portConstraint=eastwest;rotatable=0;whiteSpace=wrap;html=1;" vertex="1" parent="xa8eYgp0jNfek7VKnrT4-34">
          <mxGeometry y="60" width="140" height="30" as="geometry" />
        </mxCell>
        <mxCell id="xa8eYgp0jNfek7VKnrT4-37" value="Item 3" style="text;strokeColor=none;fillColor=none;align=left;verticalAlign=middle;spacingLeft=4;spacingRight=4;overflow=hidden;points=[[0,0.5],[1,0.5]];portConstraint=eastwest;rotatable=0;whiteSpace=wrap;html=1;" vertex="1" parent="xa8eYgp0jNfek7VKnrT4-34">
          <mxGeometry y="90" width="140" height="30" as="geometry" />
        </mxCell>
        <mxCell id="xa8eYgp0jNfek7VKnrT4-38" value="&lt;span style=&quot;font-size: 8px;&quot;&gt;linkedin_seguidores_localidade&lt;/span&gt;" style="swimlane;fontStyle=0;childLayout=stackLayout;horizontal=1;startSize=30;horizontalStack=0;resizeParent=1;resizeParentMax=0;resizeLast=0;collapsible=1;marginBottom=0;whiteSpace=wrap;html=1;" vertex="1" parent="1">
          <mxGeometry x="895" y="335" width="140" height="120" as="geometry" />
        </mxCell>
        <mxCell id="xa8eYgp0jNfek7VKnrT4-39" value="Item 1" style="text;strokeColor=none;fillColor=none;align=left;verticalAlign=middle;spacingLeft=4;spacingRight=4;overflow=hidden;points=[[0,0.5],[1,0.5]];portConstraint=eastwest;rotatable=0;whiteSpace=wrap;html=1;" vertex="1" parent="xa8eYgp0jNfek7VKnrT4-38">
          <mxGeometry y="30" width="140" height="30" as="geometry" />
        </mxCell>
        <mxCell id="xa8eYgp0jNfek7VKnrT4-40" value="Item 2" style="text;strokeColor=none;fillColor=none;align=left;verticalAlign=middle;spacingLeft=4;spacingRight=4;overflow=hidden;points=[[0,0.5],[1,0.5]];portConstraint=eastwest;rotatable=0;whiteSpace=wrap;html=1;" vertex="1" parent="xa8eYgp0jNfek7VKnrT4-38">
          <mxGeometry y="60" width="140" height="30" as="geometry" />
        </mxCell>
        <mxCell id="xa8eYgp0jNfek7VKnrT4-41" value="Item 3" style="text;strokeColor=none;fillColor=none;align=left;verticalAlign=middle;spacingLeft=4;spacingRight=4;overflow=hidden;points=[[0,0.5],[1,0.5]];portConstraint=eastwest;rotatable=0;whiteSpace=wrap;html=1;" vertex="1" parent="xa8eYgp0jNfek7VKnrT4-38">
          <mxGeometry y="90" width="140" height="30" as="geometry" />
        </mxCell>
        <mxCell id="xa8eYgp0jNfek7VKnrT4-55" style="edgeStyle=orthogonalEdgeStyle;rounded=0;orthogonalLoop=1;jettySize=auto;html=1;" edge="1" parent="1" source="xa8eYgp0jNfek7VKnrT4-49" target="xa8eYgp0jNfek7VKnrT4-51">
          <mxGeometry relative="1" as="geometry" />
        </mxCell>
        <mxCell id="xa8eYgp0jNfek7VKnrT4-56" style="edgeStyle=orthogonalEdgeStyle;rounded=0;orthogonalLoop=1;jettySize=auto;html=1;" edge="1" parent="1" source="xa8eYgp0jNfek7VKnrT4-49" target="xa8eYgp0jNfek7VKnrT4-54">
          <mxGeometry relative="1" as="geometry" />
        </mxCell>
        <mxCell id="xa8eYgp0jNfek7VKnrT4-57" style="edgeStyle=orthogonalEdgeStyle;rounded=0;orthogonalLoop=1;jettySize=auto;html=1;entryX=0;entryY=0.5;entryDx=0;entryDy=0;" edge="1" parent="1" source="xa8eYgp0jNfek7VKnrT4-49" target="xa8eYgp0jNfek7VKnrT4-52">
          <mxGeometry relative="1" as="geometry" />
        </mxCell>
        <mxCell id="xa8eYgp0jNfek7VKnrT4-49" value="" style="rounded=1;whiteSpace=wrap;html=1;fillColor=#f8cecc;strokeColor=#b85450;" vertex="1" parent="1">
          <mxGeometry x="1120" y="255" width="160" height="390" as="geometry" />
        </mxCell>
        <mxCell id="xa8eYgp0jNfek7VKnrT4-46" value="" style="shape=image;verticalLabelPosition=bottom;labelBackgroundColor=default;verticalAlign=top;aspect=fixed;imageAspect=0;image=https://joyfulcraftsmen.com/wp-content/uploads/2022/09/PBI_icon.png;" vertex="1" parent="1">
          <mxGeometry x="1158.1200000000001" y="312.5" width="83.75" height="83.75" as="geometry" />
        </mxCell>
        <mxCell id="xa8eYgp0jNfek7VKnrT4-48" value="" style="shape=image;verticalLabelPosition=bottom;labelBackgroundColor=default;verticalAlign=top;aspect=fixed;imageAspect=0;image=https://cdn-icons-png.freepik.com/512/6820/6820756.png;" vertex="1" parent="1">
          <mxGeometry x="1161.8700000000001" y="457.5" width="80" height="80" as="geometry" />
        </mxCell>
        <mxCell id="xa8eYgp0jNfek7VKnrT4-51" value="Heads" style="text;strokeColor=none;align=center;fillColor=none;html=1;verticalAlign=middle;whiteSpace=wrap;rounded=0;" vertex="1" parent="1">
          <mxGeometry x="1360" y="335" width="60" height="30" as="geometry" />
        </mxCell>
        <mxCell id="xa8eYgp0jNfek7VKnrT4-52" value="Social Media" style="text;strokeColor=none;align=center;fillColor=none;html=1;verticalAlign=middle;whiteSpace=wrap;rounded=0;" vertex="1" parent="1">
          <mxGeometry x="1360" y="535" width="80" height="30" as="geometry" />
        </mxCell>
        <mxCell id="xa8eYgp0jNfek7VKnrT4-54" value="CEO" style="text;strokeColor=none;align=center;fillColor=none;html=1;verticalAlign=middle;whiteSpace=wrap;rounded=0;" vertex="1" parent="1">
          <mxGeometry x="1420" y="435" width="80" height="30" as="geometry" />
        </mxCell>
        <mxCell id="xa8eYgp0jNfek7VKnrT4-50" style="edgeStyle=orthogonalEdgeStyle;rounded=0;orthogonalLoop=1;jettySize=auto;html=1;entryX=0.013;entryY=0.359;entryDx=0;entryDy=0;exitX=1;exitY=0.5;exitDx=0;exitDy=0;entryPerimeter=0;" edge="1" parent="1" source="xa8eYgp0jNfek7VKnrT4-23" target="xa8eYgp0jNfek7VKnrT4-49">
          <mxGeometry relative="1" as="geometry" />
        </mxCell>
        <mxCell id="xa8eYgp0jNfek7VKnrT4-61" value="" style="rounded=1;whiteSpace=wrap;html=1;fillColor=#d5e8d4;strokeColor=#82b366;" vertex="1" parent="1">
          <mxGeometry x="478.75" y="665" width="720" height="160" as="geometry" />
        </mxCell>
        <mxCell id="xa8eYgp0jNfek7VKnrT4-62" value="Suporte:" style="text;html=1;align=center;verticalAlign=middle;resizable=0;points=[];autosize=1;strokeColor=none;fillColor=none;" vertex="1" parent="1">
          <mxGeometry x="480" y="675" width="70" height="30" as="geometry" />
        </mxCell>
        <mxCell id="xa8eYgp0jNfek7VKnrT4-63" value="" style="shape=image;verticalLabelPosition=bottom;labelBackgroundColor=default;verticalAlign=top;aspect=fixed;imageAspect=0;image=https://1000logos.net/wp-content/uploads/2021/05/GitHub-logo.png;" vertex="1" parent="1">
          <mxGeometry x="553.89" y="715" width="71.11" height="40" as="geometry" />
        </mxCell>
        <mxCell id="xa8eYgp0jNfek7VKnrT4-64" value="" style="shape=image;verticalLabelPosition=bottom;labelBackgroundColor=default;verticalAlign=top;aspect=fixed;imageAspect=0;image=https://static-00.iconduck.com/assets.00/discord-icon-2048x2048-o5mluhz2.png;" vertex="1" parent="1">
          <mxGeometry x="831" y="715" width="40" height="40" as="geometry" />
        </mxCell>
        <mxCell id="xa8eYgp0jNfek7VKnrT4-65" value="" style="shape=image;verticalLabelPosition=bottom;labelBackgroundColor=default;verticalAlign=top;aspect=fixed;imageAspect=0;image=https://static-00.iconduck.com/assets.00/docker-icon-512x438-ga1hb37h.png;" vertex="1" parent="1">
          <mxGeometry x="1090" y="715" width="46.76" height="40" as="geometry" />
        </mxCell>
        <mxCell id="xa8eYgp0jNfek7VKnrT4-66" value="" style="shape=curlyBracket;whiteSpace=wrap;html=1;rounded=1;labelPosition=left;verticalLabelPosition=middle;align=right;verticalAlign=middle;size=0.5;rotation=90;" vertex="1" parent="1">
          <mxGeometry x="579.44" y="695" width="20" height="140" as="geometry" />
        </mxCell>
        <mxCell id="xa8eYgp0jNfek7VKnrT4-67" value="&lt;font style=&quot;font-size: 8px;&quot;&gt;Versionamento e documentação&lt;/font&gt;" style="text;html=1;align=center;verticalAlign=middle;resizable=0;points=[];autosize=1;strokeColor=none;fillColor=none;" vertex="1" parent="1">
          <mxGeometry x="519.44" y="765" width="140" height="30" as="geometry" />
        </mxCell>
        <mxCell id="xa8eYgp0jNfek7VKnrT4-68" value="" style="shape=curlyBracket;whiteSpace=wrap;html=1;rounded=1;labelPosition=left;verticalLabelPosition=middle;align=right;verticalAlign=middle;size=0.5;rotation=90;" vertex="1" parent="1">
          <mxGeometry x="841" y="695" width="20" height="140" as="geometry" />
        </mxCell>
        <mxCell id="xa8eYgp0jNfek7VKnrT4-69" value="&lt;font style=&quot;font-size: 8px;&quot;&gt;Alertas&lt;/font&gt;" style="text;html=1;align=center;verticalAlign=middle;resizable=0;points=[];autosize=1;strokeColor=none;fillColor=none;" vertex="1" parent="1">
          <mxGeometry x="826" y="765" width="50" height="30" as="geometry" />
        </mxCell>
        <mxCell id="xa8eYgp0jNfek7VKnrT4-70" value="" style="shape=curlyBracket;whiteSpace=wrap;html=1;rounded=1;labelPosition=left;verticalLabelPosition=middle;align=right;verticalAlign=middle;size=0.5;rotation=90;" vertex="1" parent="1">
          <mxGeometry x="1103.38" y="695" width="20" height="140" as="geometry" />
        </mxCell>
        <mxCell id="xa8eYgp0jNfek7VKnrT4-71" value="&lt;font style=&quot;font-size: 8px;&quot;&gt;Containerização&lt;/font&gt;&lt;div&gt;&lt;font style=&quot;font-size: 8px;&quot;&gt;(fazer rodar na máquina de todo mundo)&lt;/font&gt;&lt;/div&gt;" style="text;html=1;align=center;verticalAlign=middle;resizable=0;points=[];autosize=1;strokeColor=none;fillColor=none;" vertex="1" parent="1">
          <mxGeometry x="1028.38" y="760" width="170" height="40" as="geometry" />
        </mxCell>
      </root>
    </mxGraphModel>
  </diagram>
</mxfile>
